<svg width="167" height="28" viewBox="0 0 167 28" fill="none" xmlns="http://www.w3.org/2000/svg">
<path d="M21.4895 0.509766L11.0895 27.1098L0.689453 0.509766H8.98945L11.1895 8.40977L13.5895 0.509766H21.4895Z" fill="#252525"/>
<path d="M31.2895 6.90967C33.7895 6.90967 35.8895 7.80967 37.6895 9.70967C39.4895 11.6097 40.3895 13.8097 40.3895 16.4097C40.3895 19.1097 39.4895 21.3097 37.6895 23.2097C35.8895 25.1097 33.6895 26.0097 31.1895 26.0097C28.6895 26.0097 26.4895 25.1097 24.6895 23.2097C22.8895 21.3097 21.9895 19.1097 21.9895 16.4097C21.9895 13.7097 22.8895 11.4097 24.6895 9.60967C26.4895 7.80967 28.5895 6.90967 31.2895 6.90967ZM31.0895 13.7097C30.3895 13.7097 29.7895 14.0097 29.2895 14.5097C28.7895 15.0097 28.5895 15.7097 28.5895 16.5097C28.5895 17.3097 28.7895 17.9097 29.2895 18.5097C29.7895 19.1097 30.3895 19.3097 31.0895 19.3097C31.7895 19.3097 32.3895 19.0097 32.8895 18.5097C33.3895 18.0097 33.5895 17.3097 33.5895 16.5097C33.5895 15.7097 33.3895 15.1097 32.8895 14.5097C32.3895 13.9097 31.7895 13.7097 31.0895 13.7097Z" fill="#252525"/>
<path d="M51.7895 6.90967C54.2895 6.90967 56.3895 7.80967 58.1895 9.70967C59.9895 11.6097 60.8895 13.8097 60.8895 16.4097C60.8895 19.1097 59.9895 21.3097 58.1895 23.2097C56.3895 25.1097 54.1895 26.0097 51.6895 26.0097C49.1895 26.0097 46.9895 25.1097 45.1895 23.2097C43.3895 21.3097 42.4895 19.1097 42.4895 16.4097C42.4895 13.7097 43.3895 11.4097 45.1895 9.60967C46.9895 7.80967 49.0895 6.90967 51.7895 6.90967ZM51.5895 13.7097C50.8895 13.7097 50.2895 14.0097 49.7895 14.5097C49.2895 15.0097 49.0895 15.7097 49.0895 16.5097C49.0895 17.3097 49.2895 17.9097 49.7895 18.5097C50.2895 19.1097 50.8895 19.3097 51.5895 19.3097C52.2895 19.3097 52.8895 19.0097 53.3895 18.5097C53.8895 18.0097 54.0895 17.3097 54.0895 16.5097C54.0895 15.7097 53.8895 15.1097 53.3895 14.5097C52.8895 13.9097 52.2895 13.7097 51.5895 13.7097Z" fill="#252525"/>
<path d="M68.7895 17.4097C69.8895 17.4097 70.8895 17.8097 71.7895 18.7097C72.5895 19.6097 72.9895 20.6097 72.9895 21.8097C72.9895 23.0097 72.5895 24.0097 71.7895 24.9097C70.9895 25.8097 69.9895 26.2097 68.7895 26.2097C67.5895 26.2097 66.5895 25.8097 65.7895 25.0097C64.9895 24.2097 64.5895 23.1097 64.5895 21.9097C64.5895 20.7097 64.9895 19.6097 65.7895 18.8097C66.6895 17.9097 67.5895 17.4097 68.7895 17.4097Z" fill="#0468FF"/>
<path d="M87.4894 9.50977V16.1098H85.4894V25.6098H78.3894V0.509766H85.4894V9.50977H87.4894ZM95.8894 0.509766V25.7098H88.6894V0.509766H95.8894Z" fill="#252525"/>
<path d="M108.789 6.90967C111.289 6.90967 113.389 7.80967 115.189 9.70967C116.989 11.6097 117.889 13.8097 117.889 16.4097C117.889 19.1097 116.989 21.3097 115.189 23.2097C113.389 25.1097 111.189 26.0097 108.689 26.0097C106.189 26.0097 103.989 25.1097 102.189 23.2097C100.389 21.3097 99.4895 19.1097 99.4895 16.4097C99.4895 13.7097 100.389 11.4097 102.189 9.60967C103.989 7.80967 106.189 6.90967 108.789 6.90967ZM108.689 13.7097C107.989 13.7097 107.389 14.0097 106.889 14.5097C106.389 15.0097 106.189 15.7097 106.189 16.5097C106.189 17.3097 106.389 17.9097 106.889 18.5097C107.389 19.1097 107.989 19.3097 108.689 19.3097C109.389 19.3097 109.99 19.0097 110.49 18.5097C110.99 18.0097 111.189 17.3097 111.189 16.5097C111.189 15.7097 110.99 15.1097 110.49 14.5097C109.99 13.9097 109.389 13.7097 108.689 13.7097Z" fill="#252525"/>
<path d="M144.99 25.7097H138.389V15.8097C138.389 15.0097 138.289 14.5097 138.189 14.2097C138.089 13.9097 137.789 13.8097 137.389 13.8097C136.689 13.8097 136.29 14.5097 136.29 15.8097V25.7097H129.689V15.8097C129.689 15.0097 129.59 14.5097 129.49 14.2097C129.39 13.9097 129.089 13.8097 128.689 13.8097C127.989 13.8097 127.59 14.5097 127.59 15.8097V25.7097H120.99V14.4097C120.99 12.3097 121.69 10.6097 122.99 9.10967C124.29 7.60967 125.889 6.90967 127.789 6.90967C129.689 6.90967 131.49 7.80967 132.99 9.50967C134.69 7.80967 136.389 6.90967 138.189 6.90967C140.389 6.90967 142.09 7.70967 143.49 9.40967C144.49 10.7097 145.089 12.6097 145.089 15.1097V25.7097H144.99Z" fill="#252525"/>
<path d="M166.489 17.6097H156.489C156.289 17.1097 156.289 16.6097 156.289 16.1097C156.289 15.5097 156.389 14.9097 156.589 14.3097H159.889C159.689 12.9097 158.889 12.3097 157.689 12.3097C156.889 12.3097 156.189 12.7097 155.689 13.4097C155.189 14.1097 154.889 15.1097 154.889 16.2097C154.889 17.4097 155.089 18.4097 155.589 19.1097C156.089 19.8097 156.789 20.2097 157.589 20.2097C158.289 20.2097 158.889 19.9097 159.489 19.2097L163.189 23.9097C161.489 25.3097 159.489 26.1097 157.389 26.1097C154.789 26.1097 152.589 25.2097 150.789 23.3097C148.989 21.4097 148.089 19.2097 148.089 16.5097C148.089 13.8097 148.989 11.5097 150.789 9.70967C152.589 7.90967 154.789 6.90967 157.389 6.90967C159.889 6.90967 162.089 7.80967 163.789 9.60967C165.489 11.4097 166.389 13.7097 166.389 16.3097C166.589 16.6097 166.489 17.0097 166.489 17.6097Z" fill="#252525"/>
</svg>
